<svg width="24" height="24" viewBox="0 0 24 24" fill="none" xmlns="http://www.w3.org/2000/svg">
<g clip-path="url(#clip0_259_32)">
<rect width="24" height="24" rx="12" fill="#141516"/>
<path d="M20.0637 10.4278V10.142H18.5405C18.5405 10.142 14.9392 9.97573 12.9443 12.2761C11.9318 13.4435 11.5931 14.9009 11.5035 16.0462C11.4252 15.9125 11.3518 15.772 11.2855 15.6248C10.7208 14.3705 11.3214 12.8563 11.8524 12.163C12.9458 10.7353 14.8451 9.87461 14.8451 9.87461C14.8451 9.87461 13.1196 9.78435 11.7722 9.01917C10.4248 8.254 9.30739 6.048 9.30739 6.048L8.56172 8.78584C8.56172 8.78584 9.5693 9.46449 10.5537 9.74539C11.538 10.0263 12.8907 10.142 12.8907 10.142H11.0022C11.0022 10.142 7.40089 9.97573 5.40596 12.2761C4.1878 13.6802 3.94461 15.5042 3.93787 16.6997C3.93375 17.4473 3.93787 17.9492 3.93787 17.9492H8.19301C8.19301 17.9492 8.15442 15.6844 8.31404 14.6308C8.62505 12.5791 9.47263 11.6132 10.2861 11.2079C11.2502 10.7274 11.979 10.5608 12.5711 10.4667C12.8802 10.4177 13.7769 10.3162 13.7769 10.3162C12.3178 10.863 9.85933 12.069 9.6641 14.8001C9.48612 17.2889 10.8737 17.9492 10.8737 17.9492H15.7313C15.7313 17.9492 15.6927 15.6844 15.8524 14.6308C16.1634 12.5791 17.0109 11.6132 17.8244 11.2079C18.7885 10.7274 20.064 10.4278 20.064 10.4278H20.0637Z" fill="white"/>
</g>
<defs>
<clipPath id="clip0_259_32">
<rect width="24" height="24" rx="12" fill="white"/>
</clipPath>
</defs>
</svg>
